# xmcd
#
# Track frame offsets:
#	151
#	10932
#	22689
#	31182
#	41471
#	52415
#	62623
#	75102
#	84156
#	96412
#	109844
#	122469
#	133638
#	145410
#
# Disc length: 2103 seconds
#
# Revision: 1
# Processed by: cddbd v1.5.2PL0 Copyright (c) Steve Scherf et al.
# Submitted via: audiograbber 1.83.01
#
DISCID=a608350e
DTITLE=Doreen Brown - Should I Cross The Line Doreen Brown
DYEAR=2000
DGENRE=Country
TTITLE0=Don´t Belive You´ve Meet My Baby
TTITLE1=Newfoundland Memories
TTITLE2=Thank You Mister Dj
TTITLE3=Country Music Will Live On
TTITLE4=Blue Mountain Love
TTITLE5=Should I Cross The Line
TTITLE6=It Wasen´t God Who Made Honky Tonk Angels
TTITLE7=Are You Teasing Me
TTITLE8=Watch Over The Chrildren
TTITLE9=The Lights Are Growing Dim
TTITLE10=Heartaches By The Number
TTITLE11=I´m Just Not That Kind
TTITLE12=Ashes Of Love
TTITLE13=Unending Love
EXTD=
EXTT0=
EXTT1=
EXTT2=
EXTT3=
EXTT4=
EXTT5=
EXTT6=
EXTT7=
EXTT8=
EXTT9=
EXTT10=
EXTT11=
EXTT12=
EXTT13=
PLAYORDER=
